<svg width="33" height="18" viewBox="0 0 33 18" fill="none" xmlns="http://www.w3.org/2000/svg">
<path d="M0 1C0 0.447715 0.447715 0 1 0H32C32.5523 0 33 0.447715 33 1C33 1.55228 32.5523 2 32 2H1C0.447715 2 0 1.55228 0 1Z" fill="#FD563C"/>
<path d="M9 9C9 8.44771 9.44772 8 10 8L32 8C32.5523 8 33 8.44772 33 9C33 9.55229 32.5523 10 32 10L10 10C9.44771 10 9 9.55228 9 9Z" fill="#FD563C"/>
<path d="M17 16C16.4477 16 16 16.4477 16 17C16 17.5523 16.4477 18 17 18L32 18C32.5523 18 33 17.5523 33 17C33 16.4477 32.5523 16 32 16L17 16Z" fill="#FD563C"/>
</svg>
