<svg width="428" height="105" viewBox="0 0 428 105" fill="none" xmlns="http://www.w3.org/2000/svg">
<path fill-rule="evenodd" clip-rule="evenodd" d="M191.738 98.508C240.048 109.901 274.692 103.728 301.989 90.111C323.731 79.2655 340.774 63.7098 356.305 48.6692C357.166 48.1693 358.024 47.6718 358.879 47.1768C383.32 33.0301 405.335 21.0599 427.828 19.0032L427.755 18.0068C405.266 20.0632 383.309 31.9089 359.229 45.8283C360.031 45.0469 360.83 44.2678 361.625 43.4918C363.719 41.4486 365.792 39.4266 367.851 37.4394C386.641 19.3061 404.28 4.10508 427.145 1.74319L427.061 0.747925C403.805 3.15016 385.932 18.613 367.164 36.7253C365.102 38.7161 363.027 40.7394 360.933 42.782C359.205 44.4675 357.464 46.1662 355.705 47.8704C354.643 48.4866 353.577 49.1062 352.507 49.7284C329.668 63.0042 304.727 77.5015 275.441 87.1308C251.052 95.15 223.633 99.7972 191.905 97.5152C143.829 86.1634 82.0661 57.3282 0.288814 0.832104L-0.289062 1.65901C78.1031 55.8165 138.201 84.6305 185.542 96.9695C135.776 92.0157 75.5835 70.0581 0.288631 18.0914L-0.288879 18.9185C78.324 73.1753 140.573 94.8106 191.738 98.508ZM197.985 98.8738C242.996 108.35 275.658 102.136 301.557 89.2171C321.821 79.1086 337.977 64.8848 352.708 50.759C329.955 63.9854 305.01 78.456 275.737 88.0809C252.807 95.6202 227.237 100.183 197.985 98.8738Z" fill="#646464"/>
</svg>
