<svg width="110" height="89" viewBox="0 0 110 89" fill="none" xmlns="http://www.w3.org/2000/svg">
<path fill-rule="evenodd" clip-rule="evenodd" d="M12.6289 -7.90362C20.6757 23.1066 32.8573 43.7898 45.8799 56.0707C58.9027 68.3517 72.7861 72.2423 84.185 69.5945C95.5906 66.9451 104.417 57.7693 107.342 44.12C110.265 30.4773 107.295 12.3796 95.1802 -8.19464L94.519 -7.80532C106.566 12.6547 109.463 30.5559 106.591 43.9592C103.721 57.3559 95.0912 66.2734 84.0114 68.8471C72.9249 71.4224 59.2939 67.6659 46.4064 55.5125C33.5187 43.3589 21.3941 22.8202 13.3716 -8.09634L12.6289 -7.90362ZM0.628897 -6.90361C11.3015 34.222 26.4733 60.0052 42.5047 74.2274C58.5476 88.4598 75.4556 91.112 89.5059 85.9442C117.586 75.6163 133.936 34.2293 109.358 -7.19574L108.698 -6.80422C133.097 34.3195 116.757 75.1036 89.2411 85.2241C75.4935 90.2805 58.8771 87.7263 43.0139 73.6534C27.1393 59.5703 12.0234 33.9492 1.37159 -7.09635L0.628897 -6.90361Z" fill="#646464"/>
</svg>
