<svg width="15" height="15" viewBox="0 0 15 15" fill="none" xmlns="http://www.w3.org/2000/svg">
<path d="M8.37253 0.444705C9.18182 0.446249 9.59258 0.450253 9.94724 0.460055L10.0868 0.464984C10.2479 0.470617 10.4069 0.47769 10.599 0.486176C11.3644 0.521563 11.8868 0.64202 12.3452 0.819355C12.8201 1.00171 13.2202 1.24887 13.6205 1.64781C13.9866 2.00714 14.2699 2.44192 14.4509 2.9219C14.6289 3.38 14.7502 3.90217 14.7867 4.66826C14.7955 4.85961 14.8028 5.01858 14.8087 5.18043L14.8131 5.31999C14.8242 5.67391 14.8288 6.08466 14.8309 6.89394L14.832 7.43059L14.8327 8.37296C14.8349 8.89766 14.8297 9.42238 14.8173 9.94694L14.8131 10.0865C14.8075 10.2484 14.8004 10.4073 14.7919 10.5987C14.7566 11.3649 14.6347 11.8865 14.458 12.3456C14.2783 12.8261 13.9956 13.2614 13.6296 13.6209C13.2702 13.9869 12.8354 14.2702 12.3555 14.4513C11.8974 14.6293 11.3752 14.7506 10.6099 14.7871C10.4392 14.7953 10.2684 14.8026 10.0977 14.8091L9.95814 14.8135C9.6035 14.8239 9.19274 14.8292 8.38346 14.8313L7.84681 14.8324L6.90516 14.8331C6.38022 14.8353 5.85527 14.8302 5.33046 14.8178L5.1909 14.8136C5.02013 14.8072 4.84939 14.7999 4.6787 14.7917C3.91327 14.7563 3.39092 14.6358 2.93183 14.4585C2.45163 14.2785 2.0166 13.9958 1.6572 13.63C1.2908 13.2708 1.00717 12.836 0.826087 12.3559C0.648056 11.8978 0.526806 11.3757 0.490256 10.6096C0.482111 10.4389 0.474788 10.2682 0.468286 10.0974L0.464583 9.95784C0.450928 9.4333 0.444535 8.9086 0.445404 8.38388L0.444281 6.90487C0.441875 6.38017 0.446752 5.85545 0.458912 5.33089L0.463841 5.19133C0.469473 5.02947 0.476546 4.87048 0.485033 4.67912C0.52042 3.91297 0.640877 3.39134 0.818211 2.93225C0.998489 2.45151 1.28202 2.01616 1.64883 1.65691C2.00758 1.29082 2.4419 1.00743 2.92147 0.826511C3.38029 0.648479 3.90174 0.52723 4.66784 0.49068C4.85918 0.481902 5.01888 0.474588 5.18001 0.46871L5.31956 0.464288C5.84411 0.451109 6.36881 0.445195 6.89352 0.446548L8.37253 0.444705ZM7.63576 4.04209C6.68182 4.04281 5.76724 4.42246 5.09322 5.09751C4.4192 5.77255 4.04094 6.68771 4.04167 7.64164C4.04239 8.59558 4.42203 9.51016 5.09708 10.1842C5.77213 10.8582 6.68728 11.2365 7.64122 11.2357C8.59516 11.235 9.50974 10.8554 10.1838 10.1803C10.8578 9.50527 11.236 8.59012 11.2353 7.63618C11.2346 6.68225 10.8549 5.76767 10.1799 5.09364C9.50485 4.41962 8.5897 4.04137 7.63576 4.04209ZM7.63685 5.48082C7.92026 5.48056 8.20094 5.53612 8.46287 5.64433C8.7248 5.75254 8.96286 5.91129 9.16344 6.1115C9.36402 6.31171 9.52321 6.54947 9.6319 6.8112C9.7406 7.07293 9.79668 7.35351 9.79694 7.63691C9.79721 7.92032 9.74164 8.201 9.63343 8.46293C9.52522 8.72487 9.36648 8.96292 9.16627 9.1635C8.96605 9.36409 8.72829 9.52327 8.46656 9.63197C8.20483 9.74066 7.92425 9.79674 7.64085 9.79701C7.06849 9.79744 6.51939 9.57049 6.11436 9.16607C5.70934 8.76166 5.48155 8.21291 5.48111 7.64055C5.48068 7.06819 5.70763 6.5191 6.11205 6.11407C6.51646 5.70904 7.06521 5.48125 7.63757 5.48082M11.4123 2.96017C11.1738 2.96036 10.9452 3.05527 10.7767 3.22403C10.6082 3.39279 10.5136 3.62158 10.5138 3.86006C10.514 4.09855 10.6089 4.32719 10.7777 4.4957C10.9464 4.6642 11.1752 4.75877 11.4137 4.75859C11.6522 4.75841 11.8808 4.66349 12.0493 4.49473C12.2178 4.32597 12.3124 4.09718 12.3122 3.8587C12.312 3.62021 12.2171 3.39157 12.0484 3.22306C11.8796 3.05456 11.6508 2.95999 11.4123 2.96017Z" fill="#FD563C"/>
</svg>
