<svg width="15" height="15" viewBox="0 0 15 15" fill="none" xmlns="http://www.w3.org/2000/svg">
<path d="M13.2805 0.152777H1.46254C1.32969 0.150932 1.19779 0.175274 1.07435 0.224413C0.950912 0.273552 0.838365 0.346525 0.743133 0.439165C0.647902 0.531806 0.571852 0.642298 0.519327 0.764332C0.466802 0.886367 0.438831 1.01755 0.437012 1.1504V13.1079C0.438831 13.2407 0.466802 13.3719 0.519327 13.494C0.571852 13.616 0.647902 13.7265 0.743133 13.8191C0.838365 13.9118 0.950912 13.9847 1.07435 14.0339C1.19779 14.083 1.32969 14.1074 1.46254 14.1055H13.2805C13.4134 14.1074 13.5453 14.083 13.6687 14.0339C13.7921 13.9847 13.9047 13.9118 13.9999 13.8191C14.0951 13.7265 14.1712 13.616 14.2237 13.494C14.2762 13.3719 14.3042 13.2407 14.306 13.1079V1.1504C14.3042 1.01755 14.2762 0.886367 14.2237 0.764332C14.1712 0.642298 14.0951 0.531806 13.9999 0.439165C13.9047 0.346525 13.7921 0.273552 13.6687 0.224413C13.5453 0.175274 13.4134 0.150932 13.2805 0.152777ZM4.64376 11.8312H2.55085V5.55249H4.64376V11.8312ZM3.59731 4.67347C3.30867 4.67347 3.03185 4.5588 2.82775 4.35471C2.62366 4.15061 2.50899 3.87379 2.50899 3.58515C2.50899 3.29651 2.62366 3.0197 2.82775 2.8156C3.03185 2.6115 3.30867 2.49684 3.59731 2.49684C3.75058 2.47946 3.90579 2.49464 4.05278 2.54141C4.19977 2.58817 4.33523 2.66545 4.45028 2.76819C4.56533 2.87093 4.65739 2.99682 4.72041 3.13761C4.78344 3.27839 4.81602 3.4309 4.81602 3.58515C4.81602 3.7394 4.78344 3.89191 4.72041 4.0327C4.65739 4.17348 4.56533 4.29937 4.45028 4.40211C4.33523 4.50485 4.19977 4.58214 4.05278 4.6289C3.90579 4.67566 3.75058 4.69085 3.59731 4.67347ZM12.1922 11.8312H10.0993V8.46164C10.0993 7.6175 9.7993 7.06636 9.03888 7.06636C8.80354 7.06809 8.57438 7.1419 8.38229 7.27787C8.19019 7.41383 8.04439 7.60541 7.96452 7.82679C7.90992 7.99076 7.88627 8.16345 7.89475 8.33606V11.8242H5.80184V5.54551H7.89475V6.43151C8.08488 6.1016 8.36141 5.82981 8.69455 5.64542C9.0277 5.46102 9.40484 5.371 9.78535 5.38506C11.1806 5.38506 12.1922 6.28501 12.1922 8.21746V11.8312Z" fill="#FD563C"/>
</svg>
