<svg width="15" height="15" viewBox="0 0 15 15" fill="none" xmlns="http://www.w3.org/2000/svg">
<path d="M8.92153 1.02344L8.51145 0.966204C7.27899 0.78921 6.02161 0.966192 4.8859 1.47652C3.75019 1.98684 2.78293 2.80948 2.0969 3.84853C1.36689 4.8418 0.932158 6.02099 0.842735 7.25042C0.753312 8.47985 1.01283 9.70954 1.59142 10.798C1.65064 10.9071 1.68754 11.0269 1.69999 11.1504C1.71243 11.2738 1.70017 11.3986 1.66391 11.5173C1.36974 12.5318 1.09716 13.5535 0.810223 14.6256L1.16982 14.5174C2.14077 14.2577 3.11172 13.998 4.08268 13.7599C4.28762 13.7171 4.50069 13.737 4.69418 13.817C5.5658 14.2415 6.51814 14.4748 7.48731 14.501C8.45648 14.5272 9.42004 14.3458 10.3133 13.969C11.2066 13.5921 12.009 13.0286 12.6666 12.3162C13.3241 11.6037 13.8217 10.7589 14.1259 9.83829C14.4301 8.91772 14.5338 7.94274 14.4302 6.97877C14.3265 6.0148 14.0179 5.08416 13.525 4.24929C13.0321 3.41442 12.3663 2.69464 11.5723 2.13826C10.7783 1.58188 9.87451 1.20177 8.92153 1.02344ZM10.7415 10.4601C10.4802 10.6944 10.1615 10.8552 9.81787 10.9263C9.47421 10.9973 9.11786 10.976 8.78513 10.8645C7.27742 10.4412 5.96893 9.49637 5.09276 8.19842C4.75811 7.73938 4.48898 7.23599 4.29313 6.70275C4.18704 6.39334 4.1677 6.06079 4.2372 5.74117C4.30671 5.42155 4.4624 5.12706 4.6874 4.88965C4.79692 4.74966 4.94605 4.6459 5.11538 4.59188C5.28471 4.53786 5.46638 4.53609 5.63673 4.58679C5.78063 4.62265 5.8815 4.83119 6.01111 4.98935C6.11636 5.28637 6.23959 5.5769 6.37865 5.85951C6.48409 6.00366 6.52822 6.18368 6.50139 6.36026C6.47457 6.53684 6.37898 6.69564 6.23549 6.80198C5.91199 7.08997 5.96253 7.32733 6.19297 7.65087C6.70244 8.38363 7.40509 8.9608 8.22285 9.31825C8.45312 9.41879 8.62578 9.44024 8.77667 9.20273C8.84134 9.10917 8.92761 9.02997 8.99948 8.94359C9.41631 8.41814 9.28683 8.42543 9.94886 8.71267C10.1597 8.801 10.3641 8.90443 10.5606 9.02154C10.7549 9.13649 11.0499 9.25856 11.0932 9.43117C11.1349 9.61844 11.1241 9.81357 11.062 9.99511C11 10.1766 10.8891 10.3375 10.7415 10.4601Z" fill="#FD563C"/>
</svg>
