<svg width="63" height="141" viewBox="0 0 63 141" fill="none" xmlns="http://www.w3.org/2000/svg">
<path fill-rule="evenodd" clip-rule="evenodd" d="M-11.4967 140.912C52.9446 114.55 68.7375 68.5967 60.1761 36.4217C55.9026 20.3614 45.5491 7.73597 32.1599 2.81526C18.7441 -2.11524 2.39688 0.730988 -13.7423 15.3846L-13.0753 16.1217C2.84273 1.66879 18.8051 -1.02307 31.8052 3.75466C44.832 8.54218 55.0006 20.8713 59.2098 36.6898C67.6136 68.2724 52.2131 113.773 -11.8655 139.987L-11.4967 140.912ZM-12.269 127.943C36.6242 107.801 52.4907 69.0996 47.95 42.6337C45.6815 29.4117 38.295 19.1871 27.3183 16.006C16.3425 12.8251 1.97989 16.7458 -14.1147 31.359L-13.4478 32.096C2.51486 17.6027 16.5241 13.9225 27.0296 16.967C37.5342 20.0113 44.7383 29.8382 46.9646 42.8144C51.4135 68.7451 35.886 107.028 -12.6401 127.019L-12.269 127.943Z" fill="#646464"/>
</svg>
