<svg width="16" height="15" viewBox="0 0 16 15" fill="none" xmlns="http://www.w3.org/2000/svg">
<path d="M8.09447 0.271903C7.15621 0.272616 6.22727 0.458126 5.3607 0.817842C4.49413 1.17756 3.7069 1.70444 3.04395 2.36839C1.70506 3.70931 0.953693 5.52718 0.955132 7.42209C0.95753 10.5801 3.01011 13.2578 5.8473 14.2059C6.20459 14.2628 6.31873 14.0412 6.31859 13.8483L6.31767 12.6408C4.3389 13.071 3.9163 11.6853 3.9163 11.6853C3.58701 10.8567 3.12244 10.6356 3.12244 10.6356C2.47193 10.1931 3.17212 10.2069 3.17212 10.2069C3.88664 10.2563 4.26583 10.9419 4.26583 10.9419C4.88825 12.0275 5.93829 11.7052 6.34541 11.5334C6.40936 11.0689 6.59488 10.7544 6.7948 10.5756C5.20853 10.3982 3.54333 9.78504 3.54127 7.06289C3.54066 6.26982 3.81168 5.63373 4.27571 5.1261C4.20412 4.94754 3.95349 4.20467 4.34572 3.23983C4.34572 3.23983 4.94573 3.04646 6.31108 3.9671C6.8754 3.80949 7.48979 3.73043 8.0971 3.72997C8.7044 3.72951 9.31891 3.80763 9.88347 3.96439C11.2474 3.04168 11.8477 3.23413 11.8477 3.23413C12.2414 4.19838 11.9919 4.94162 11.9206 5.12029C12.3854 5.62722 12.6574 6.2629 12.658 7.05597C12.6601 9.78527 10.9886 10.3867 9.39549 10.5665C9.65287 10.7878 9.88898 11.2235 9.88948 11.8879L9.89097 13.8456C9.89112 14.0385 10.0056 14.2671 10.3699 14.2025C13.2057 13.2429 15.2471 10.5692 15.2447 7.41124C15.2439 6.47298 15.0584 5.54404 14.6987 4.67747C14.339 3.8109 13.8121 3.02367 13.1482 2.36072C12.4842 1.69777 11.6962 1.17209 10.8291 0.81369C9.96195 0.45529 9.03273 0.271191 8.09447 0.271903Z" fill="#FD563C"/>
</svg>
