<svg width="49" height="510" viewBox="0 0 49 510" fill="none" xmlns="http://www.w3.org/2000/svg">
<path d="M42.3278 52.6392L36.5674 46.4373L42.313 41.0824L48.0734 47.2843L42.3278 52.6392ZM47.7948 460.417C47.7651 463.363 45.3618 465.548 42.4269 465.298C39.492 465.048 37.1368 462.458 37.1665 459.513C37.1962 456.568 39.5995 454.382 42.5345 454.632C45.4694 454.882 47.8245 457.472 47.7948 460.417ZM1.9551 1.87881L0.958646 1.80546L0.957445 0.86639L1.89042 0.875324L1.9551 1.87881ZM42.3031 2.26521L42.2384 1.26172L43.3003 1.27189L43.2995 2.34055L42.3031 2.26521ZM2.60191 507.642L2.66659 508.645L1.60682 508.635L1.60546 507.568L2.60191 507.642ZM42.9498 508.028L43.9462 508.093L43.9555 509.04L43.0145 509.031L42.9498 508.028ZM41.3239 46.7874C41.3083 34.5296 41.3039 23.3803 41.3035 15.2954C41.3033 11.253 41.3041 7.97665 41.3049 5.7109C41.3053 4.57802 41.3058 3.69779 41.3061 3.10076C41.3062 2.80225 41.3064 2.57454 41.3065 2.42145C41.3065 2.34491 41.3066 2.28702 41.3066 2.24826C41.3066 2.22889 41.3066 2.21429 41.3066 2.20454C41.3066 2.19966 41.3066 2.196 41.3066 2.19355C41.3066 2.19233 41.3066 2.19141 41.3066 2.19079C41.3066 2.19049 41.3066 2.19026 41.3066 2.1901C41.3066 2.18995 41.3066 2.18987 42.3031 2.26521C43.2995 2.34055 43.2995 2.34062 43.2995 2.34077C43.2995 2.34093 43.2995 2.34115 43.2995 2.34146C43.2995 2.34207 43.2995 2.34299 43.2995 2.34421C43.2995 2.34665 43.2995 2.35031 43.2995 2.35518C43.2995 2.36491 43.2995 2.3795 43.2995 2.39886C43.2995 2.43759 43.2994 2.49545 43.2994 2.57197C43.2993 2.72501 43.2991 2.95266 43.299 3.25112C43.2987 3.84803 43.2982 4.72815 43.2978 5.8609C43.297 8.12641 43.2962 11.4025 43.2964 15.4446C43.2968 23.5289 43.3012 34.6773 43.3168 46.9342L41.3239 46.7874ZM42.3677 3.2687L2.01977 2.8823L1.89042 0.875324L42.2384 1.26172L42.3677 3.2687ZM2.95155 1.95216L3.59836 507.715L1.60546 507.568L0.958646 1.80546L2.95155 1.95216ZM2.53723 506.638L42.8851 507.024L43.0145 509.031L2.66659 508.645L2.53723 506.638ZM41.9534 507.963L41.4843 459.9L43.4771 460.03L43.9462 508.093L41.9534 507.963Z" fill="#FD563C"/>
</svg>
