<svg width="141" height="494" viewBox="0 0 141 494" fill="none" xmlns="http://www.w3.org/2000/svg">
<path d="M6.13459 45.512L11.884 40.1612L6.12736 33.9557L0.377952 39.3066L6.13459 45.512ZM1.07391 450.288C1.04421 453.234 3.39936 455.824 6.33427 456.074C9.26919 456.323 11.6725 454.138 11.7022 451.193C11.7319 448.247 9.37675 445.657 6.44184 445.407C3.50692 445.158 1.10362 447.343 1.07391 450.288ZM139.348 1.79071L140.344 1.86472L140.343 0.792481L139.278 0.787189L139.348 1.79071ZM6.10682 1.12881L6.03761 0.125292L5.10979 0.120683L5.11037 1.05481L6.10682 1.12881ZM139.655 492.833L139.724 493.836L140.652 493.841L140.651 492.907L139.655 492.833ZM6.41397 492.171L5.41752 492.097L5.41819 493.169L6.48319 493.174L6.41397 492.171ZM7.12742 39.8079L7.10328 1.20282L5.11037 1.05481L5.13452 39.6599L7.12742 39.8079ZM6.17604 2.13234L139.417 2.79424L139.278 0.787189L6.03761 0.125292L6.17604 2.13234ZM138.351 1.71671L138.658 492.759L140.651 492.907L140.344 1.86472L138.351 1.71671ZM139.585 491.829L6.34475 491.167L6.48319 493.174L139.724 493.836L139.585 491.829ZM7.41042 492.245L7.38451 450.815L5.3916 450.666L5.41752 492.097L7.41042 492.245Z" fill="#FD563C"/>
</svg>
